<svg width="24" height="24" viewBox="0 0 24 24" fill="#5124C5" xmlns="http://www.w3.org/2000/svg">
<path fill-rule="evenodd" clip-rule="evenodd" d="M4.36364 16.36C5.01819 16.36 5.45455 15.9367 5.45455 15.27C5.45455 14.6033 5.01819 14.18 4.36364 14.18H3.27273C2.61818 14.18 2.18182 13.7567 2.18182 13.09V3.27C2.18182 2.60331 2.61818 2.18 3.27273 2.18H13.0909C13.7455 2.18 14.1818 2.60331 14.1818 3.27V4.36C14.1818 5.02669 14.6182 5.55577 15.2727 5.55577C15.9273 5.55577 16.3636 5.02669 16.3636 4.36V3.27C16.3636 1.38104 14.9455 0 13.0909 0H3.27273C1.41818 0 0 1.38104 0 3.27V13.09C0 14.979 1.41818 16.36 3.27273 16.36H4.36364ZM20.7271 7.64001H10.909C9.05441 7.64001 7.63623 9.05588 7.63623 10.91V20.73C7.63623 22.5841 9.05441 24 10.909 24H20.7271C22.5817 24 23.9999 22.5841 23.9999 20.73V10.91C23.9999 9.05588 22.5817 7.64001 20.7271 7.64001ZM21.8184 20.73C21.8184 21.3845 21.382 21.82 20.7275 21.82H10.9093C10.2547 21.82 9.81836 21.3845 9.81836 20.73V10.91C9.81836 10.2554 10.2547 9.82001 10.9093 9.82001L20.7275 9.81996C21.382 9.81996 21.8184 10.2554 21.8184 10.91V20.73Z"/>
</svg>
