<svg width="227" height="231" viewBox="0 0 227 231" fill="none" xmlns="http://www.w3.org/2000/svg">
<path d="M137.106 40.3138C95.133 32.9926 86.5667 81.8883 86.5667 81.8883C86.5667 81.8883 80.8819 59.0962 50.0205 59.1173C19.1591 59.1384 7.11006 95.8584 28.7256 117.234C50.3411 138.609 95.1329 171.368 95.1329 171.368C95.1329 171.368 107.644 143.021 144.034 117.155C180.424 91.2891 179.08 47.635 137.106 40.3138Z" fill="#87D8F1"/>
<path d="M87.0786 81.8916C87.0786 81.8916 73.8762 77.4244 69.5258 79.9473C65.5394 82.259 62.2138 83.9976 58.6707 89.2114C57.4996 108.808 56.9659 117.239 60.0266 130.388C62.9138 142.792 69.8296 153.815 78.331 163.298L107.003 195.278L105.975 201.945C105.975 201.945 90.9217 199.658 76.4246 192.34C50.7939 179.401 35.9891 163.126 35.9891 163.126C35.9891 163.126 22.2479 132.338 23.8492 119.429C26.2907 99.6162 36.7541 88.5838 40.8855 84.9326C41.976 83.9688 43.2502 83.2728 44.593 82.7117L55.9625 77.9605L69.5421 73.2883C72.4422 72.2905 75.5679 72.1473 78.5471 72.8756L83.9946 74.2073L87.0786 81.8916Z" fill="#FFD31A"/>
<path d="M61.5858 79.2344C61.4609 79.1246 61.7906 78.67 61.7994 78.454L62.2318 78.3384L62.2851 78.3253L62.3999 78.2831C62.5602 78.217 62.7124 78.1403 62.87 78.0662L63.3508 77.8415C63.4655 77.7112 63.5678 77.5706 63.6563 77.4214C63.5945 77.5438 63.5274 77.6768 63.4602 77.8099C63.3931 77.9429 63.3426 77.8974 63.2837 77.9479C63.2249 77.9983 63.1501 78.0273 63.078 78.0644L62.6451 78.3133C62.5699 78.3597 62.4913 78.4004 62.41 78.4351L62.3539 78.4669C62.2283 78.557 62.1026 78.6472 61.9876 78.7427C61.7523 78.9178 61.5676 79.1117 61.5858 79.2344Z" fill="#5124C5"/>
<path d="M61.7995 78.4542L60.4892 78.7878C61.5577 78.2453 61.7976 78.2729 61.7995 78.4542Z" fill="#5124C5"/>
<path d="M57.0231 81.5392L57.8522 81.5637L56.4176 81.6142L57.0231 81.5392Z" fill="#5124C5"/>
<path d="M53.9673 83.0018C54.6016 83.0682 53.5159 83.8959 54.1214 83.8209C53.3524 84.1209 52.5372 84.2856 51.712 84.3075C52.5588 84.0622 53.3329 83.614 53.9673 83.0018Z" fill="#5124C5"/>
<path d="M50.4904 84.4257C50.8915 84.3522 51.2969 84.3048 51.704 84.2837C51.3092 84.3931 50.8998 84.441 50.4904 84.4257Z" fill="#5124C5"/>
<path d="M58.4721 79.8465C58.3347 80.2285 58.0622 80.547 57.7062 80.742L57.9993 80.0819L58.4721 79.8465Z" fill="#5124C5"/>
<path d="M58.0101 80.0605C57.4999 80.3172 57.126 80.4891 56.995 80.5765L58.0101 80.0605Z" fill="#5124C5"/>
<path d="M58.5894 79.7856L58.4719 79.8465C58.4961 79.7853 58.5176 79.756 58.5894 79.7856Z" fill="#5124C5"/>
<path d="M63.7897 75.3452C63.6559 75.4913 63.4951 75.6907 63.3398 75.8794C63.2577 75.9715 63.18 76.0592 63.1068 76.1424L63.0719 76.2116C63.0352 76.2716 62.9949 76.3293 62.9512 76.3845L62.7074 76.6955C62.6578 76.767 62.5921 76.8258 62.5155 76.8672C62.4389 76.9086 62.3536 76.9314 62.2666 76.9337C62.1626 76.9413 62.128 76.9172 62.1763 76.8481C62.2245 76.7789 62.4007 76.7209 62.4712 76.4226C62.5303 76.3055 62.6216 76.1246 62.6515 75.9861C62.6814 75.8475 62.6815 75.8209 62.7059 75.7196C63.1819 75.3322 62.9731 76.2486 63.7897 75.3452Z" fill="#5124C5"/>
<path d="M58.9579 78.9765L60.2084 78.2722C60.2266 78.3949 60.0602 78.6582 60.4604 78.6064L58.9579 78.9765Z" fill="#5124C5"/>
<path d="M58.2697 79.1363L58.9582 78.9763L58.4933 79.2358L58.2697 79.1363Z" fill="#5124C5"/>
<path d="M52.4801 82.9188C51.8012 83.0227 51.1416 83.2278 50.5235 83.5272C51.2146 83.0859 51.934 82.6906 52.6769 82.3437C52.8446 82.435 53.2707 82.5566 52.4801 82.9188Z" fill="#5124C5"/>
<path d="M55.1492 81.4813L55.0131 81.5127C55.0747 81.4437 55.1308 81.3985 55.1492 81.4813Z" fill="#5124C5"/>
<path d="M46.052 87.6878L46.0446 87.5305L46.1351 87.5762L46.052 87.6878Z" fill="#5124C5"/>
<path d="M52.7682 82.1893C53.1344 81.9214 53.5799 81.7842 54.0334 81.7996C53.5702 81.9565 53.1164 82.1399 52.6743 82.3489C52.5944 82.3086 52.5787 82.2472 52.7682 82.1893Z" fill="#5124C5"/>
<path d="M49.5775 84.7927C49.6393 84.6504 49.7093 84.5118 49.7871 84.3776C49.8573 84.2711 49.915 84.1568 49.959 84.037C49.9746 84.1016 49.9707 84.1693 49.9476 84.2316C49.9081 84.3229 49.8633 84.4117 49.8133 84.4977C49.7459 84.6841 49.6467 84.8277 49.5775 84.7927Z" fill="#5124C5"/>
<path d="M54.8816 81.7336L54.9723 81.7126C54.833 81.8961 54.8359 81.8374 54.8816 81.7336Z" fill="#5124C5"/>
<path d="M54.8817 81.7336C54.6021 81.7855 54.3178 81.8077 54.0336 81.7996C54.352 81.6866 54.6774 81.5943 55.0078 81.5234C54.9568 81.5877 54.9144 81.6584 54.8817 81.7336Z" fill="#5124C5"/>
<path d="M42.0927 87.0248C42.1093 86.8862 43.6798 86.1564 44.2237 84.7614L44.312 84.6791C44.3281 84.6472 44.3868 84.6501 44.4215 84.6342C44.4907 84.6124 44.5624 84.5993 44.6349 84.595C44.7654 84.5848 44.8963 84.6073 45.0159 84.6605C45.2675 84.8017 45.4689 85.0177 45.5921 85.2786C45.9082 85.9703 46.0708 86.7222 46.0689 87.4827C45.8613 87.3779 45.7021 87.1773 44.6033 87.9783C44.6455 87.4052 46.0587 85.2671 44.937 85.7693C43.5062 86.9103 44.0765 86.9978 43.7666 87.8497C43.7339 87.3324 43.181 87.6075 42.5453 87.901C42.245 88.0439 41.9322 88.1587 41.6108 88.2441C41.4831 88.2758 41.3498 88.2771 41.2215 88.2479C41.1843 88.2291 41.1843 88.2291 41.179 88.2264C41.179 88.2264 41.179 88.2264 41.1978 88.1891C41.3719 87.9765 41.538 87.7665 41.7254 87.5673L42.0038 87.2671C42.0884 87.1597 42.1896 87.0665 42.3035 86.991C42.2556 86.9668 42.2609 86.9695 42.2154 87.0066L42.1084 87.0995C41.9801 87.2083 41.9453 87.2242 42.0927 87.0248Z" fill="#5124C5"/>
<path d="M47.6812 85.6386L48.0984 85.3149C47.7241 85.8722 47.4702 86.5014 47.3528 87.1624C46.5831 87.6286 46.3218 87.6436 46.1434 87.5603C46.6873 86.8665 47.2737 86.2209 47.8628 85.57L47.6812 85.6386Z" fill="#5124C5"/>
<path d="M49.7416 83.7935C49.6434 83.6838 49.4433 83.7097 49.2593 83.717C49.0753 83.7242 48.8832 83.7608 48.7152 83.7762C48.3818 83.8016 48.1475 83.7234 48.2534 83.2225C48.4616 83.0381 48.6947 82.8837 48.9457 82.7639C49.059 82.7252 49.1827 82.7304 49.2922 82.7786C49.3827 82.8243 49.4732 82.8699 49.5637 82.9156C49.6106 82.9457 49.6606 82.9709 49.7127 82.9908L49.7978 83.0338L49.8404 83.0553L49.9284 83.0397C49.8755 83.0625 49.8211 83.0819 49.7656 83.0977C49.7316 83.1111 49.6968 83.1225 49.6615 83.1319L49.4986 83.19C49.4459 83.2066 49.3976 83.2346 49.357 83.2721C49.3328 83.32 49.4315 83.3097 49.5273 83.3581C49.751 83.4176 49.9453 83.509 49.6668 83.8225C49.7816 83.7936 49.9042 83.8021 50.0002 83.7838C50.0543 83.7739 50.1078 83.7607 50.1604 83.7444C50.2698 83.6995 50.3766 83.6599 50.4808 83.6123C50.3765 83.6866 50.2696 83.7528 50.1681 83.8218C50.1301 83.852 50.0952 83.8858 50.0637 83.9227C50.0015 83.9862 49.9507 84.06 49.9135 84.1407L49.9297 84.1088C49.93 84.0288 49.9168 83.9888 49.8953 84.0447C49.8515 83.989 49.7995 83.9403 49.7412 83.9001C49.6871 83.9648 49.6404 84.0353 49.6017 84.1102C49.5829 84.1475 49.5856 84.1421 49.6496 84.1344C49.7017 84.1114 49.7525 84.0858 49.8019 84.0576C49.8153 84.0506 49.8302 84.0469 49.8454 84.0468C49.8605 84.0467 49.8755 84.0502 49.889 84.0571C49.9025 84.0639 49.9142 84.0738 49.9231 84.0861C49.9321 84.0983 49.9379 84.1125 49.9403 84.1275C49.889 84.1392 49.8402 84.1598 49.796 84.1883L49.5635 84.3447C49.4058 84.4454 49.2347 84.5727 49.0743 84.6921C48.7401 84.9174 48.4085 85.1774 48.0796 85.4321C48.2702 85.1818 48.4835 84.9497 48.7168 84.7387C48.8586 84.6166 49.0084 84.4785 49.193 84.3113C49.2813 84.2289 49.3722 84.168 49.4658 84.0883C49.5595 84.0087 49.6989 83.812 49.7416 83.7935Z" fill="#5124C5"/>
<path d="M60.7127 76.1892C60.6724 76.269 60.6644 76.285 60.6509 76.3116C60.4909 76.3377 60.4136 76.332 60.7127 76.1892Z" fill="#5124C5"/>
<path d="M59.7845 76.8762C60.1331 76.9091 60.4833 76.8311 60.7851 76.6534C61.2503 76.3139 60.7005 76.4638 60.6718 76.3223C61.0745 76.2786 62.0431 76.0663 61.0061 76.7449L60.806 76.7708C59.8493 77.343 58.7894 78.424 58.9813 78.4274C59.1167 77.8519 59.3927 77.3189 59.7845 76.8762Z" fill="#5124C5"/>
<path d="M54.2955 80.2889L52.1146 80.9844L53.0085 80.1L53.0581 80.3721C54.1935 79.7766 54.064 80.1654 54.2955 80.2889Z" fill="#5124C5"/>
<path d="M46.1252 88.059L46.7669 88.2827C46.2999 88.3876 45.8064 88.4657 45.3286 88.6051C45.5827 88.4061 45.8525 88.2552 46.1252 88.059Z" fill="#5124C5"/>
<path d="M44.3417 90.1635L44.8604 90.4587C44.6227 90.5725 44.4036 90.7023 44.1738 90.8267L44.3417 90.1635Z" fill="#5124C5"/>
<path d="M44.4983 154.227C45.6532 154.81 47.2775 155.336 46.2767 155.598L45.2392 155.682C45.1819 155.122 44.9178 154.603 44.4983 154.227Z" fill="#5124C5"/>
<path d="M72.2291 191.686L71.9684 191.554L71.7052 191.335C71.7052 191.335 71.6842 191.257 71.6791 191.215L71.6743 191.065C71.6693 190.969 71.6724 190.871 71.6647 190.78C71.7994 191.108 71.9043 191.562 72.2291 191.686Z" fill="#5124C5"/>
<path d="M72.5753 192.455L73.7248 193.035C73.464 192.917 73.0915 192.729 72.5753 192.455Z" fill="#5124C5"/>
<path d="M94.9143 175.957L94.4368 175.329C95.308 176.183 94.8827 175.848 94.9143 175.957Z" fill="#5124C5"/>
<path d="M34.1164 116.015C34.2139 116.376 34.2873 116.744 34.3362 117.114C34.3542 117.277 34.3616 117.435 34.3664 117.584L34.3736 117.794L34.389 117.949C34.2549 117.742 34.1423 117.522 34.0529 117.292C33.964 117.094 33.8856 116.892 33.8179 116.686C33.7393 116.339 33.7616 116.083 34.1164 116.015Z" fill="#5124C5"/>
<path d="M34.4091 119.696C34.3242 119.586 34.2739 119.474 34.1971 119.362C34.2663 119.126 34.3145 118.884 34.3411 118.64C34.3954 118.414 34.4117 118.18 34.3891 117.949C34.5626 118.197 34.6748 118.483 34.7165 118.782C34.7368 118.948 34.7198 119.116 34.6666 119.274C34.6134 119.432 34.5254 119.576 34.4091 119.696Z" fill="#5124C5"/>
<path d="M39.0952 99.8162C39.3958 99.3001 39.2074 99.766 39.0952 99.8162V99.8162Z" fill="#5124C5"/>
<path d="M37.9312 95.9297C37.8737 95.9725 37.8061 95.9995 37.735 96.0081C37.6639 96.0167 37.5917 96.0066 37.5257 95.9788C37.6621 96.0159 37.8076 95.9982 37.9312 95.9297Z" fill="#5124C5"/>
<path d="M29.9878 126.046L30.001 126.099C29.9455 125.917 29.9561 125.949 29.9878 126.046Z" fill="#5124C5"/>
<path d="M39.1788 98.9099C39.157 99.1686 39.1105 99.4247 39.0399 99.6745C39.0621 99.4158 39.1086 99.1598 39.1788 98.9099Z" fill="#5124C5"/>
<path d="M39.4338 99.1456C39.4932 98.9486 39.5418 98.7994 39.593 98.6583C39.7263 98.6455 39.766 98.739 39.4338 99.1456Z" fill="#5124C5"/>
<path d="M38.7589 100.548C38.8818 100.257 38.9801 99.9556 39.053 99.6479C39.0499 99.7732 39.0603 99.8319 39.095 99.8161C39.0251 99.9678 38.923 100.183 38.7589 100.548Z" fill="#5124C5"/>
<path d="M71.8649 140.734L71.8388 140.601C71.7905 139.969 71.8188 140.243 71.8649 140.734Z" fill="#5124C5"/>
<path d="M45.9184 171.098L45.8731 171.042L45.9397 171.109L45.9184 171.098Z" fill="#5124C5"/>
<path d="M47.3465 172.847C46.9243 172.224 46.4445 171.642 45.9134 171.109L46.6425 171.477L47.3465 172.847Z" fill="#5124C5"/>
<path d="M107.819 197.609C107.269 197.626 107.663 198.473 106.503 198.588L108.146 198.563C107.557 198.694 106.958 198.774 106.356 198.801C105.668 198.841 104.886 198.854 103.961 198.928C104.406 198.865 107.671 198.55 105.776 198.508C105.028 198.553 104.279 198.543 103.533 198.478C103.522 198.606 102.531 198.56 101.294 198.496L101.37 198.675C100.694 198.606 100.022 198.49 99.3615 198.329C98.6399 198.211 97.903 198.224 97.1858 198.366C94.7952 198.114 98.8548 198.354 96.0488 197.972C95.0629 197.835 94.2208 197.717 93.3444 197.522C92.468 197.327 91.5625 197.083 90.4148 196.711C89.059 196.38 90.6221 196.882 90.1318 196.795L88.9792 196.313C88.6863 196.232 88.766 196.299 88.8085 196.334C88.3133 196.164 88.3242 196.089 88.2338 196.044C87.9256 195.848 87.5938 195.691 87.2464 195.579C86.6142 195.277 85.9495 195.049 85.2654 194.899C84.226 194.544 83.2226 194.091 82.2685 193.547C81.808 193.361 82.4303 193.755 82.2677 193.747C79.8923 192.327 80.2061 192.539 78.3152 191.311C77.7216 191.058 77.1656 190.73 76.5909 190.44C77.8843 191.04 76.3953 189.994 75.095 189.091L75.26 189.174C75.26 189.174 75.3293 189.169 75.3694 189.156L75.4975 189.114L75.97 188.958C76.206 188.874 76.4477 188.806 76.6933 188.756L74.9706 186.771C74.5731 186.844 74.5095 187.433 74.5172 188.211C74.4417 188.028 74.3757 187.841 74.3194 187.651C74.0935 187.652 73.8736 187.723 73.6894 187.853C73.6123 187.911 73.5453 187.981 73.4913 188.061C73.459 188.125 73.4617 188.119 73.4617 188.119C73.6107 188.3 73.7842 188.46 73.9771 188.593L74.7994 189.002C75.2671 189.398 75.7295 189.805 75.5641 189.828C75.4204 189.756 75.1679 189.555 74.8726 189.372C75.0002 189.477 75.0772 189.549 75 189.53C74.781 189.399 74.5721 189.251 74.3752 189.088L73.7704 188.963L73.6856 188.827C72.7225 188.287 71.7756 187.715 70.8179 187.165C70.3341 186.801 69.8875 186.455 69.4303 186.091L68.0164 184.923C67.5194 184.518 66.9878 184.09 66.387 183.626L64.4014 182.056C65.0654 182.725 64.4269 182.363 64.3623 182.531C64.9652 182.88 65.5348 183.284 66.064 183.737C66.7366 184.243 67.5101 184.841 68.3106 185.372C67.4649 184.811 67.5975 185.012 67.7968 185.173C66.8797 184.463 65.9358 183.792 65.0455 183.043C65.0262 183.2 64.3802 182.707 63.6277 182.187C63.9846 182.287 63.4903 181.863 62.746 181.287C62.0017 180.711 61.13 179.977 60.5879 179.53C60.4598 179.546 60.6694 179.832 62.033 180.887C61.4186 180.497 60.8591 180.025 60.3694 179.487C59.8831 178.956 59.3456 178.474 58.7646 178.049C58.9819 178.212 59.1814 178.398 59.3597 178.603C58.6638 177.904 56.7953 176.393 57.1642 176.827L57.4858 177.103C56.9382 176.666 56.2927 176.066 55.5966 175.434L54.5498 174.465L53.5458 173.464C52.6646 172.655 51.8693 171.756 51.1726 170.784C51.1407 170.767 51.2322 171.234 51.3143 171.389C50.8236 170.708 50.3571 170.005 49.8771 169.328L49.5272 168.804L49.3603 168.54C49.3875 168.38 49.4336 168.196 49.4715 168.028C49.6315 167.341 49.7994 166.664 49.9672 166.001C49.6047 166.427 49.18 166.796 48.7073 167.095C48.6405 167.135 48.5736 167.188 48.5041 167.233L48.4025 167.302C48.3837 167.339 48.3223 167.355 48.3277 167.344L48.2504 167.338C48.2006 167.334 48.1505 167.336 48.1011 167.343C47.9356 167.38 47.9241 167.601 48.6431 168.518C47.9712 167.812 47.3554 167.055 46.8015 166.253C47.0988 166.603 47.7373 166.966 47.3579 166.474C46.8359 165.993 46.3603 165.465 45.9376 164.895C45.8819 164.82 45.6914 164.444 45.3473 163.776C45.6568 164.42 45.6308 163.558 45.2213 162.584C45.2419 162.754 44.9146 162.609 45.0198 162.983L44.3178 160.405C44.518 161.04 44.1304 160.604 43.8179 160.072C43.9716 160.31 42.9649 157.925 42.7382 157.25L43.2142 158.278C42.0812 155.482 42.5216 155.351 41.4339 152.544C41.5045 152.907 41.3929 153.512 40.8304 152.099C40.7811 151.747 40.6775 150.96 40.5081 149.933L40.4715 149.741C40.5215 149.645 40.5808 149.554 40.6485 149.47C40.7799 149.276 40.9086 149.087 41.0267 148.893C41.2678 148.515 41.4891 148.125 41.6897 147.725C42.0593 147.033 42.2759 146.27 42.3249 145.488L41.4593 145.258L41.5769 143.093C41.2232 143.543 40.7942 144.167 40.3329 144.896C40.1022 145.261 39.866 145.649 39.6272 146.056C39.5735 146.162 39.5197 146.269 39.466 146.375L39.3854 146.535C39.3558 146.593 39.3851 146.615 39.3849 146.655L39.4871 147.127C39.7542 148.397 40.0636 149.742 40.3079 150.687C39.999 150.093 39.7418 149.474 39.5392 148.836C39.256 148.299 39.7463 149.749 39.8992 150.213L38.5323 146.518C38.7505 146.628 37.717 143.609 37.9032 143.703C38.3059 145.075 38.7112 146.442 39.1326 147.803C39.3561 147.916 38.7662 145.314 37.8592 142.679C37.5657 142.03 37.7342 143.284 37.6597 143.246C37.5944 142.886 36.9416 140.7 36.8199 140.465L37.0981 141.62C36.5518 140.163 36.5344 139.139 35.8292 137.4C35.5486 136.779 35.3141 136.139 35.1274 135.483C35.1891 135.655 35.287 135.812 35.4143 135.943C35.5416 136.074 35.6955 136.177 35.8656 136.243L35.9403 136.241L36.1859 136.165C36.5569 136.051 36.9066 135.927 37.2244 135.801C37.723 135.628 38.1857 135.366 38.5898 135.027C38.5021 134.936 37.8862 134.251 37.1638 133.526C36.5737 132.862 35.9055 132.271 35.1736 131.767C35.0068 131.687 34.8225 131.652 34.6381 131.664C34.6062 131.647 34.6009 131.645 34.6113 131.717C34.594 131.888 34.5942 132.06 34.612 132.231C34.6423 132.661 34.6726 133.103 34.4902 132.684C34.4808 132.391 34.4444 132.1 34.3816 131.814C34.1681 131.166 34.3111 132.126 33.9593 130.693C34.051 130.419 33.2213 127.789 33.914 130.002C33.6262 128.588 33.5037 128.526 33.1449 126.869C33.2585 127.12 33.268 126.731 33.2118 126.102L33.1684 125.592L33.1583 125.454C33.1771 125.416 33.2093 125.353 33.2362 125.299C33.2631 125.246 33.3437 125.086 33.3974 124.98C33.5735 124.592 33.6893 124.18 33.7407 123.758C33.5548 123.821 33.3529 123.82 33.1675 123.755L32.8906 123.656C32.7895 123.605 32.8136 123.57 32.7844 123.535C32.6592 122.804 32.531 122.172 32.4427 121.566C32.3544 120.961 32.2552 120.417 32.1933 119.864C32.1314 119.312 32.0721 118.781 32.0291 118.192C32.0089 117.901 31.986 117.603 31.9712 117.288L31.9723 116.307C31.9013 116.051 31.9891 114.713 31.867 115.272L31.96 114.651C32.0143 114.411 32.0767 114.116 32.1477 113.697C32.2686 112.055 31.8366 115.544 31.8441 114.299C31.9591 114.203 32.3243 112.144 32.5741 110.961C32.6686 111.356 32.1396 113.713 31.9164 114.91C31.959 114.931 32.0182 114.787 32.0964 114.553C32.1233 114.5 32.1555 114.436 32.1877 114.372L32.2415 114.266C32.2901 114.228 32.341 114.194 32.3938 114.162C32.6188 114.007 32.8324 113.836 33.033 113.65C33.9667 112.761 34.7046 111.687 35.1994 110.496C36.0365 108.428 34.4386 109.358 34.7145 109.023C34.8137 108.218 35.0859 107.444 35.5124 106.754C35.8299 106.321 36.2137 105.94 36.6498 105.626C37.0314 105.357 37.3547 105.013 37.6002 104.616C37.8764 104.023 38.0034 103.372 37.9701 102.719C37.5496 101.131 36.245 102.035 35.7084 101.524C35.3068 102.185 35.1151 102.952 35.1587 103.724C35.2152 104.342 35.1714 104.965 35.029 105.569L35.0378 103.977C34.5748 104.444 33.9492 105.565 34.0584 106.287C33.8021 104.996 35.9649 99.2961 37.3442 96.2994C37.4785 96.0333 37.6585 95.6767 37.7794 95.4372C37.809 95.3786 37.8358 95.3254 37.8547 95.2882C37.8735 95.2509 37.8923 95.2137 37.9536 95.2246C38.0148 95.2355 38.1026 95.2998 38.1287 95.4332L37.5894 96.3296C37.8542 97.4984 39.2689 94.987 39.0425 96.3219C39.5377 95.8039 40.1794 95.3264 40.7043 94.7232C40.9733 94.4222 41.2121 94.0953 41.4172 93.7475C41.6637 93.3704 41.8674 92.967 42.0244 92.5447L41.385 91.7344C41.6056 91.9192 41.2304 93.0989 40.7333 93.4089C41.0995 93.1597 41.2012 92.3763 41.3934 91.6118C41.5857 90.8474 41.887 90.1313 42.6549 90.1183C42.5784 90.6006 42.5365 91.107 42.5026 91.6108C43.0269 91.1409 43.7564 90.7277 44.4009 90.2183C44.724 89.9706 45.0216 89.6913 45.2893 89.3846C45.5691 89.0932 45.8024 88.7605 45.9809 88.3981C46.1173 88.9745 46.0478 89.0329 45.9567 89.1472C45.8656 89.2615 45.745 89.421 45.8779 90.2293C45.6144 89.4285 45.0697 90.3089 44.5574 91.1254C44.045 91.9419 43.6233 92.7375 43.4063 91.6329C43.6013 92.2774 43.5723 92.9689 43.3241 93.5949C43.2244 93.8823 43.1431 94.1759 43.0808 94.4738C43.0315 94.8809 43.0488 95.2934 43.1321 95.6951C42.8662 95.4941 42.8366 94.8781 42.3809 96.2041C42.2464 96.2299 42.1161 96.2742 41.9938 96.3359C41.975 96.3731 41.9697 96.3838 41.9535 96.4157C41.9493 96.3884 41.9476 96.3607 41.9485 96.333C41.8684 96.3594 41.8791 96.3648 41.9485 96.333C41.9838 96.0406 41.937 95.744 41.8132 95.4767C41.2279 95.761 40.7386 96.2105 40.4058 96.7697C40.0934 97.3204 39.7164 97.8318 39.2828 98.2931C39.1037 99.1242 39.7714 98.1323 39.9265 98.6982L38.9343 99.4862C39.554 99.8858 39.3938 102.015 40.4079 100.377L39.8978 102.009C39.9452 102.588 39.9034 103.171 39.7738 103.737C39.7066 104.255 39.5243 104.752 39.2403 105.19C39.2079 106.009 37.8687 106.902 38.6358 106.388C38.2275 107.197 37.9203 108.03 37.5758 108.884L37.7567 108.976C37.6439 109.643 37.4655 110.298 37.224 110.931C37.0135 111.586 36.819 112.262 36.6377 112.952C36.443 113.653 36.3302 114.373 36.3015 115.1C36.2924 115.259 36.3089 115.418 36.3503 115.572C36.3798 115.72 36.4175 115.866 36.4633 116.01C36.5163 116.168 36.5816 116.321 36.6588 116.469C36.7411 116.633 36.8321 116.793 36.9316 116.947C36.6369 117.934 36.6609 118.988 37 119.96L37.8098 120.142C37.7095 121.267 39.2134 123.288 38.5657 123.936C39.7427 124.33 40.1989 125.635 40.5025 127.111C40.6543 127.855 40.766 128.626 40.9153 129.323C41.0104 129.959 41.1975 130.577 41.4708 131.159L40.4616 131.518C40.6972 132.209 40.8676 132.922 40.9706 133.645C41.0905 134.373 41.1486 135.211 41.2223 136.136L40.2618 136.319C39.9806 138.053 42.1888 139.963 42.9503 142.304C43.2527 142.023 42.9455 141.467 42.5816 141.116C44.1373 142.162 44.2885 143.754 44.3623 145.354C44.4362 146.954 44.4246 148.565 45.7033 149.537C45.6484 149.817 45.6732 150.107 45.775 150.373C45.8767 150.639 46.0513 150.871 46.2788 151.043C46.2613 150.987 46.2569 150.928 46.2661 150.87C46.3116 150.95 46.3496 151.034 46.3798 151.121C46.6562 151.341 46.9567 151.552 47.233 151.799C46.9391 151.666 46.6695 151.484 46.4352 151.262C46.6487 151.937 46.7759 152.637 46.8138 153.343L47.9712 153.26C47.979 153.324 47.9975 153.367 48.0026 153.436C48.6696 153.993 47.741 154.192 46.8108 154.117C46.7915 154.53 46.7053 154.938 46.5556 155.323C48.4648 155.245 46.7501 157.425 48.8588 157.508C48.1784 158.34 49.6918 161.361 47.9944 162.501C48.2506 162.43 48.45 162.591 48.3075 162.198C48.3898 162.3 48.4905 162.444 48.5542 162.516L48.7373 162.736C48.8505 162.872 48.9318 163.032 48.9755 163.203C49.0676 163.423 49.0853 163.666 49.0262 163.897C49.4829 163.693 49.9184 163.452 50.3671 163.238C50.1959 164.08 50.0832 164.951 49.9625 165.839C51.3718 166.116 52.0545 166.087 52.1963 164.562C52.263 165.12 52.3705 165.672 52.5179 166.214C52.6109 166.502 52.7257 166.783 52.8613 167.055C53.1818 167.779 53.3737 168.554 53.4284 169.344L54.0364 168.603C54.5701 169.2 54.5843 171.037 55.5103 170.816C56.8008 170.8 58.4587 172.305 60.476 173.944C61.5063 174.823 62.5885 175.639 63.7167 176.388C64.2748 176.758 64.8519 177.098 65.4457 177.408C66.0237 177.688 66.6239 177.919 67.2401 178.1C66.0182 178.986 66.6472 179.049 67.4361 179.127C68.225 179.205 69.1525 179.286 68.5889 180.243C69.2117 179.843 69.966 179.883 69.6869 178.981C70.3469 179.689 71.1693 180.226 72.0831 180.545C72.4923 180.7 72.8487 180.969 73.1104 181.32C73.3721 181.671 73.5282 182.089 73.5605 182.526C74.1621 182.088 73.6741 181.415 74.0962 181.2C74.178 181.422 74.4127 182.095 74.8401 181.883C75.2675 181.671 74.848 181.219 74.7297 180.779C76.708 182.152 75.7915 184.073 74.9074 185.864C76.4704 185.705 76.9355 186.106 77.068 187.696C77.7624 187.379 78.7339 187.121 77.5325 186.154C77.9157 186.347 79.1697 186.787 80.2633 187.359C81.3569 187.931 82.2476 188.588 81.9408 189.328C82.3656 189.095 83.0482 189.78 83.1778 190.052C83.6035 190.267 83.9548 190.444 84.2424 190.523L84.9879 190.792C85.5663 191.018 86.1268 191.288 86.6645 191.599C86.4777 191.625 86.2964 191.627 86.1098 191.639C86.0551 192.687 86.3848 192.92 86.8724 192.986C87.4842 192.963 88.0934 193.075 88.6575 193.313L88.6796 193.11C90.5012 192.954 90.7909 193.188 91.1019 193.431C91.2807 193.592 91.509 193.686 91.7488 193.698C92.3481 193.704 92.9454 193.626 93.5227 193.465L93.0971 194.585C92.9802 195.862 93.8126 195.708 94.8674 195.272C95.4033 195.04 95.9568 194.85 96.5226 194.705C96.777 194.625 97.0451 194.598 97.3105 194.625C97.5759 194.652 97.8329 194.733 98.0657 194.863L97.2769 195.46C97.7603 195.958 98.8041 195.61 99.6316 194.645C100.459 193.681 101.857 196.149 102.367 196.026C102.597 195.822 102.038 195.646 101.745 195.459C101.955 195.327 102.195 195.25 102.442 195.234C102.69 195.218 102.937 195.263 103.162 195.366C103.388 195.469 103.584 195.627 103.733 195.825C103.883 196.022 103.981 196.254 104.018 196.499C103.997 197.123 105.327 195.824 105.566 196.185C105.742 196.642 105.971 197.078 106.246 197.483C106.515 197.612 107.819 197.609 107.819 197.609ZM105.824 198.492C106.4 198.543 106.98 198.534 107.554 198.464C106.979 198.382 106.395 198.391 105.824 198.492ZM71.9684 187.506C72.3611 187.798 72.7805 188.052 73.2212 188.265C72.8622 188.024 72.4446 187.766 71.9684 187.506ZM39.1077 102.94L39.0542 102.966C39.0436 103.173 39.0482 103.381 39.0678 103.587C39.0761 103.518 39.0717 103.275 39.1077 102.94ZM39.4113 100.936C39.5852 100.79 39.6863 100.841 39.7631 100.966C39.5283 101.022 39.3721 101.437 39.2715 101.94C39.099 101.726 39.0468 101.433 39.4113 100.936Z" fill="#5124C5"/>
<path d="M72.522 192.362C72.5847 192.393 72.655 192.405 72.7245 192.397C72.8707 192.504 72.8626 192.534 72.522 192.362Z" fill="#5124C5"/>
<path d="M95.0018 176.075L94.9379 176.043C94.906 176.027 94.9061 175.987 94.9062 175.973L95.0018 176.075Z" fill="#5124C5"/>
<path d="M31.4276 134.399C31.5014 134.67 31.5894 134.937 31.6911 135.199C31.6803 135.247 31.5983 135.066 31.4276 134.399Z" fill="#5124C5"/>
<path d="M42.1115 94.6741L41.3424 95.6683C41.5581 95.3326 41.6759 94.9434 41.6827 94.5444C41.8155 94.6649 41.8996 95.0012 42.1115 94.6741Z" fill="#5124C5"/>
<path d="M45.8751 83.1574C46.0237 83.0135 46.1868 82.8855 46.3618 82.7753L46.5208 83.0292C46.2934 83.2451 46.0279 83.4168 45.7377 83.5355C45.6523 83.5591 45.615 83.5403 45.6206 83.4764C45.6316 83.4271 45.6547 83.3814 45.6878 83.3433C45.7386 83.2955 45.8029 83.2344 45.8751 83.1574Z" fill="#5124C5"/>
<path d="M40.7023 92.333C40.2534 91.8994 40.8716 91.3099 41.506 90.6351C41.4688 90.6752 41.4356 90.7188 41.4069 90.7654C41.8276 90.911 41.8294 91.1323 41.6497 91.4089C41.3733 91.7548 41.0551 92.0653 40.7023 92.333Z" fill="#5124C5"/>
<path d="M37.8762 101.344C37.8806 100.886 38.7635 101.465 38.6048 101.131C39.0769 101.096 38.5896 101.624 38.1219 101.929C37.6541 102.234 37.2299 102.32 37.8762 101.344Z" fill="#5124C5"/>
<path d="M39.4825 90.5287L39.909 91.2449L39.1062 91.3271L39.4825 90.5287Z" fill="#5124C5"/>
<path d="M36.1058 97.2185L36.6125 95.7781C36.7296 95.8372 36.8767 95.7311 37.04 95.5531C36.6315 96.3887 36.2998 97.3632 36.1058 97.2185Z" fill="#5124C5"/>
<path d="M37.0398 95.5529C37.1951 95.1748 37.4397 94.84 37.7527 94.5771C37.536 94.9171 37.2978 95.243 37.0398 95.5529Z" fill="#5124C5"/>
<path d="M38.2684 92.2197L38.051 92.6108L37.4982 93.5338L38.2684 92.2197Z" fill="#5124C5"/>
<path d="M31.0264 112.505C30.8111 113.024 30.6704 113.554 30.4925 114.079C30.1481 114.192 30.014 113.704 30.2482 113.121C30.5135 112.767 30.785 112.203 31.0264 112.505Z" fill="#5124C5"/>
<path d="M31.1849 107.403C31.1219 107.642 31.0791 107.887 31.0568 108.133L30.8995 108.14L31.1849 107.403Z" fill="#5124C5"/>
<path d="M29.9776 112.109C29.8623 112.258 29.4486 114.48 29.8032 112.389C29.8598 112.237 30.2926 110.612 29.9776 112.109Z" fill="#5124C5"/>
<path d="M32.5276 136.784L32.4118 136.378L32.4812 136.373L32.9962 136.239L34.0451 135.974L33.0461 136.445L32.5653 136.683L32.5276 136.784Z" fill="#5124C5"/>
<path d="M39.0291 157.904C38.2736 156.08 39.0177 157.41 38.3175 155.768C38.2126 155.314 38.8882 157.111 38.762 156.66C39.1309 157.781 39.39 158.353 39.0291 157.904Z" fill="#5124C5"/>
<path d="M38.77 156.644L38.5963 156.062C38.7043 156.391 38.7464 156.545 38.77 156.644Z" fill="#5124C5"/>
<path d="M99.4129 201.402L99.3171 201.353C99.6832 201.308 100.053 201.298 100.421 201.323L99.4129 201.402Z" fill="#5124C5"/>
<path d="M77.9122 72.9372C72.1936 72.5208 73.3181 71.3752 74.8988 77.1926C75.2573 78.5119 76.0149 79.4813 76.984 80.1833M77.9122 72.9372C83.6308 73.3537 87.3945 78.2114 85.3526 81.714C83.2334 82.0235 79.4334 81.9575 76.984 80.1833M77.9122 72.9372C79.2615 73.3209 82.2548 74.7401 83.4332 77.348C84.6116 79.9558 79.6247 80.3248 76.984 80.1833" stroke="#221F20" stroke-width="2"/>
<path d="M83.4332 83.9881C80.7833 84.2821 78.8867 81.6133 78.2696 80.2421L84.1228 80.0489L85.4098 78.1088L83.5289 74.9375L85.5839 75.568C85.9822 76.9008 86.9782 79.8179 87.7765 80.8238C88.7744 82.0812 86.7455 83.6207 83.4332 83.9881Z" fill="#221F20" stroke="#221F20"/>
<path d="M63.6234 83.966C66.8452 78.1128 83.1721 84.4904 83.1721 84.4904C83.1721 84.4904 86.7195 77.815 82.0994 78.8218C79.6373 79.3584 75.4145 78.1508 69.321 79.5902C63.9802 80.8518 59.8184 84.5183 59.0051 85.5114C57.264 87.6377 51.4527 104.071 52.8508 121.806C54.4083 141.562 62.4476 152.696 65.6503 155.982C69.9341 160.378 80.2774 169.71 84.6514 176.259C88.1506 181.498 98.4207 189.332 103.118 192.594L104.041 195.397L101.623 200.187C101.355 200.497 101.619 201.253 104.816 201.799C108.813 202.48 107.363 198.076 108.174 195.146C108.985 192.216 97.153 183.906 91.3039 179.618C85.4548 175.329 72.7109 157.209 64.0793 148.511C55.4478 139.813 58.4671 117.295 56.6428 106.357C54.8185 95.4188 59.596 91.2824 63.6234 83.966Z" fill="#221F20" stroke="#221F20" stroke-linecap="square"/>
<path d="M53.263 79.168L74.4472 71.5595L73.6597 76.763C73.6597 76.763 68.1366 76.7151 64.5789 77.6284C59.3711 78.9652 53.8346 82.1443 52.582 82.3619C50.4739 82.728 52.5765 79.7787 53.263 79.168Z" fill="#221F20" stroke="#221F20"/>
<path d="M39.6421 94.102C41.0412 90.8013 51.2785 84.0597 56.2222 81.1015L55.2947 79.6316C53.6913 80.603 49.2015 83.3674 44.0699 86.6537C37.6553 90.7616 39.66 89.4363 34.6924 98.6154C29.7247 107.795 32.5354 104.873 33.5973 106.076C34.6591 107.28 37.8933 98.2278 39.6421 94.102Z" fill="#221F20" stroke="#221F20"/>
<path d="M84.7016 197.989C89.9182 200.355 98.1546 200.884 101.621 200.853L102.292 199.523C98.6041 199.553 91.0146 199.506 90.1631 199.076C89.0987 198.539 79.5499 195.626 74.4632 191.151C70.3939 187.57 64.9672 184.385 62.7625 183.241C59.7493 181.052 52.2621 175.202 46.4192 169.314C40.5763 163.426 37.1105 151.815 36.1079 146.745C34.8358 142.43 32.0865 131.693 31.2657 123.264C30.445 114.836 33.0125 108.118 34.3989 105.813L31.7379 104.47C31.3737 106.735 30.402 112.143 29.4287 115.659C28.212 120.053 30.5787 128.594 30.3101 129.126C30.0951 129.552 33.8068 144.248 35.6895 151.543C36.9211 154.836 39.8865 162.543 41.8955 167.03C44.4068 172.639 53.4516 177.872 60.0938 183.897C66.7361 189.921 78.1809 195.031 84.7016 197.989Z" fill="#221F20" stroke="#221F20"/>
<path d="M55.8258 78.2939C53.4249 78.6402 46.6573 79.5453 44.6257 80.9239C42.0863 82.6472 30.8563 91.0024 28.1492 101.657C25.9835 110.18 28.4886 105.835 30.0119 102.597C30.074 100.625 31.5043 95.2029 36.7284 89.292C41.9525 83.381 50.1274 80.4734 53.5618 79.7585C54.2209 79.479 54.7326 79.4758 55.031 79.5486L54.8949 79.7635C55.4481 79.8886 55.4378 79.6479 55.031 79.5486L55.8258 78.2939Z" fill="#221F20" stroke="#221F20"/>
<path d="M76.8032 194.133C89.5801 199.515 101.165 203.518 104.816 201.799C101.16 202.425 89.7563 196.52 77.7435 192.271C62.7275 186.959 48.4789 175.05 44.4951 171.035C40.5112 167.02 32.4803 153.93 30.7622 150.057C29.044 146.185 27.7443 137.515 25.7908 125.51C24.228 115.905 28.1308 106.322 30.2775 102.731C29.8331 102.73 28.5693 103.205 27.0689 105.118C25.1934 107.511 22.6079 121.232 26.5353 139.91C29.6773 154.852 39.359 166.216 42.4955 171.027C49.8456 177.854 64.0263 188.752 76.8032 194.133Z" fill="#221F20" stroke="#221F20"/>
<path d="M94.6198 69.1719C94.6198 69.1719 103.583 64.3428 110.45 61.4442C115.724 59.2181 126.81 56.9303 131.126 61.5256C135.348 80.698 137.195 88.9411 136.229 102.408C135.318 115.11 130.213 127.08 123.299 137.776L99.9845 173.848L102.043 180.272C102.043 180.272 119.61 180.969 132.784 171.473C156.074 154.683 164.14 137.602 164.14 137.602C164.14 137.602 173.848 98.4218 170.246 85.9227C165.086 67.9569 154.183 58.6954 148.997 55.1593C147.165 53.91 145.017 53.2799 142.817 53.0036L116.274 49.6701L104.22 52.4179C100.828 53.1911 97.7808 55.0485 95.5394 57.7089L95.2614 58.0388L94.6198 69.1719Z" fill="#FFD31A"/>
<path d="M126.685 52.1279C126.791 51.9999 126.394 51.6024 126.352 51.3905L125.907 51.344L125.852 51.3393L125.732 51.3156C125.563 51.2755 125.401 51.2235 125.234 51.175L124.724 51.0282C124.59 50.9176 124.467 50.7947 124.356 50.6611C124.436 50.7724 124.523 50.8933 124.61 51.0142C124.698 51.1351 124.74 51.0822 124.806 51.1228C124.872 51.1634 124.951 51.1804 125.028 51.2057L125.494 51.3839C125.576 51.4179 125.66 51.4457 125.746 51.4673L125.806 51.4899C125.944 51.5593 126.082 51.6287 126.211 51.7051C126.471 51.8412 126.683 52.0038 126.685 52.1279Z" fill="#5124C5"/>
<path d="M126.352 51.3903L127.698 51.5147C126.558 51.1462 126.325 51.2109 126.352 51.3903Z" fill="#5124C5"/>
<path d="M131.552 53.6901L130.737 53.844L132.161 53.6694L131.552 53.6901Z" fill="#5124C5"/>
<path d="M134.799 54.6566C134.182 54.8215 135.384 55.4691 134.774 55.4898C135.581 55.6658 136.412 55.7008 137.23 55.5934C136.356 55.4836 135.521 55.1621 134.799 54.6566Z" fill="#5124C5"/>
<path d="M138.455 55.5189C138.048 55.5091 137.64 55.5257 137.234 55.5686C137.642 55.6149 138.053 55.5981 138.455 55.5189Z" fill="#5124C5"/>
<path d="M129.856 52.245C130.052 52.6007 130.37 52.8727 130.753 53.0096L130.36 52.4036L129.856 52.245Z" fill="#5124C5"/>
<path d="M130.346 52.3843C130.89 52.5579 131.286 52.6692 131.429 52.7351L130.346 52.3843Z" fill="#5124C5"/>
<path d="M129.73 52.2031L129.856 52.2449C129.822 52.1882 129.797 52.1626 129.73 52.2031Z" fill="#5124C5"/>
<path d="M123.899 48.6313C124.054 48.7547 124.244 48.9265 124.427 49.0885C124.523 49.1667 124.613 49.2411 124.699 49.3119L124.744 49.3748C124.79 49.4283 124.838 49.479 124.89 49.5266L125.18 49.7956C125.24 49.8585 125.314 49.9063 125.396 49.9352C125.478 49.9641 125.566 49.9733 125.652 49.962C125.756 49.9532 125.787 49.924 125.728 49.8632C125.67 49.8025 125.487 49.7728 125.37 49.4892C125.294 49.3828 125.175 49.2183 125.124 49.0862C125.073 48.954 125.068 48.9277 125.029 48.8316C124.498 48.5234 124.847 49.3958 123.899 48.6313Z" fill="#5124C5"/>
<path d="M129.24 51.4618L127.895 50.9618C127.896 51.0858 128.101 51.3199 127.698 51.3313L129.24 51.4618Z" fill="#5124C5"/>
<path d="M129.945 51.512L129.239 51.4617L129.739 51.6452L129.945 51.512Z" fill="#5124C5"/>
<path d="M136.255 54.3418C136.942 54.3382 137.625 54.4375 138.283 54.6365C137.531 54.3088 136.759 54.0309 135.97 53.8045C135.819 53.9209 135.417 54.1077 136.255 54.3418Z" fill="#5124C5"/>
<path d="M133.394 53.3397L133.533 53.3495C133.461 53.2909 133.399 53.2551 133.394 53.3397Z" fill="#5124C5"/>
<path d="M143.35 58.0465L143.332 57.89L143.25 57.9492L143.35 58.0465Z" fill="#5124C5"/>
<path d="M135.856 53.6664C135.453 53.4592 134.991 53.3934 134.546 53.4795C135.028 53.5621 135.504 53.6722 135.974 53.8094C136.046 53.7571 136.052 53.694 135.856 53.6664Z" fill="#5124C5"/>
<path d="M139.415 55.7385C139.331 55.6077 139.241 55.4817 139.143 55.3613C139.057 55.2671 138.982 55.1632 138.92 55.0518C138.914 55.118 138.929 55.1843 138.961 55.2422C139.015 55.3262 139.073 55.4069 139.136 55.484C139.231 55.6575 139.352 55.7838 139.415 55.7385Z" fill="#5124C5"/>
<path d="M133.698 53.5471L133.605 53.5405C133.771 53.6999 133.759 53.6424 133.698 53.5471Z" fill="#5124C5"/>
<path d="M133.698 53.547C133.982 53.5545 134.266 53.5319 134.546 53.4795C134.214 53.4177 133.878 53.3775 133.54 53.3591C133.601 53.4147 133.654 53.4778 133.698 53.547Z" fill="#5124C5"/>
<path d="M147.157 56.7719C147.119 56.6376 145.453 56.1625 144.698 54.8698L144.598 54.8024C144.577 54.7733 144.519 54.7854 144.482 54.7751C144.411 54.7645 144.338 54.7627 144.266 54.7698C144.135 54.7802 144.009 54.8229 143.899 54.8941C143.673 55.0729 143.508 55.3178 143.427 55.5947C143.223 56.3274 143.18 57.0955 143.301 57.8463C143.49 57.7103 143.615 57.4873 144.826 58.1065C144.695 57.5471 142.964 55.6564 144.151 55.9769C145.743 56.8799 145.193 57.0556 145.632 57.8486C145.584 57.3325 146.173 57.5177 146.847 57.7082C147.166 57.8023 147.493 57.8667 147.823 57.9007C147.954 57.9121 148.086 57.8925 148.208 57.8436C148.242 57.8192 148.242 57.8192 148.247 57.8157C148.247 57.8157 148.247 57.8157 148.223 57.7819C148.017 57.5991 147.821 57.4177 147.604 57.2502L147.282 56.9973C147.182 56.9045 147.067 56.8283 146.943 56.7715C146.987 56.7401 146.982 56.7436 147.033 56.7731L147.153 56.8482C147.297 56.9356 147.333 56.9458 147.157 56.7719Z" fill="#5124C5"/>
<path d="M141.42 56.2774L140.957 56.023C141.414 56.5149 141.763 57.0966 141.983 57.731C142.816 58.0711 143.076 58.045 143.239 57.9348C142.594 57.3347 141.914 56.7888 141.23 56.238L141.42 56.2774Z" fill="#5124C5"/>
<path d="M139.097 54.7772C139.177 54.6535 139.378 54.6478 139.561 54.6262C139.744 54.6046 139.939 54.6107 140.108 54.5996C140.441 54.5725 140.66 54.4586 140.477 53.9805C140.243 53.8309 139.988 53.7149 139.722 53.6359C139.604 53.6153 139.482 53.6398 139.382 53.7046C139.299 53.7638 139.217 53.8231 139.135 53.8824C139.093 53.9194 139.048 53.9521 139 53.98L138.922 54.0358L138.884 54.0636L138.794 54.062C138.85 54.0762 138.907 54.0869 138.964 54.0938C139 54.1017 139.036 54.1076 139.072 54.1113L139.242 54.1432C139.297 54.1513 139.349 54.1715 139.395 54.2021C139.426 54.2456 139.327 54.2509 139.24 54.3137C139.029 54.4074 138.851 54.5281 139.175 54.7942C139.057 54.7836 138.937 54.8112 138.84 54.8082C138.785 54.8068 138.73 54.8022 138.675 54.7943C138.56 54.7671 138.449 54.7447 138.338 54.714C138.453 54.771 138.569 54.8197 138.68 54.8719C138.722 54.8958 138.762 54.9237 138.799 54.9553C138.87 55.0083 138.932 55.0732 138.981 55.1471L138.96 55.1181C138.947 55.0392 138.954 54.9975 138.984 55.0494C139.019 54.9876 139.062 54.9313 139.114 54.8825C139.177 54.938 139.234 55.0002 139.284 55.0682C139.309 55.102 139.305 55.0972 139.241 55.0996C139.186 55.085 139.132 55.0677 139.078 55.0476C139.064 55.0428 139.049 55.0414 139.034 55.0437C139.019 55.046 139.005 55.0518 138.992 55.0607C138.98 55.0695 138.97 55.0812 138.963 55.0947C138.956 55.1082 138.953 55.1231 138.953 55.1382C139.005 55.1418 139.057 55.1545 139.105 55.1757L139.359 55.2938C139.53 55.3686 139.719 55.4676 139.896 55.5603C140.262 55.7306 140.63 55.9356 140.995 56.1356C140.767 55.9183 140.52 55.7224 140.257 55.5505C140.098 55.4521 139.928 55.3391 139.719 55.2028C139.619 55.1353 139.52 55.0893 139.415 55.0253C139.31 54.9613 139.142 54.7888 139.097 54.7772Z" fill="#5124C5"/>
<path d="M127.071 48.9832C127.123 49.0557 127.134 49.0702 127.151 49.0944C127.313 49.0951 127.389 49.0774 127.071 48.9832Z" fill="#5124C5"/>
<path d="M128.095 49.5166C127.756 49.6037 127.398 49.5815 127.072 49.4532C126.559 49.1907 127.126 49.2527 127.132 49.1085C126.727 49.1283 125.737 49.0702 126.868 49.5781L127.069 49.5724C128.104 49.9879 129.32 50.8898 129.131 50.9231C128.907 50.3759 128.551 49.8927 128.095 49.5166Z" fill="#5124C5"/>
<path d="M134.051 52.0285L136.314 52.3742L135.292 51.6406L135.286 51.9171C134.071 51.5066 134.26 51.8703 134.051 52.0285Z" fill="#5124C5"/>
<path d="M143.335 58.4242L142.737 58.7456C143.214 58.7761 143.714 58.776 144.208 58.839C143.926 58.6822 143.635 58.5754 143.335 58.4242Z" fill="#5124C5"/>
<path d="M145.427 60.2241L144.96 60.5969C145.213 60.6721 145.45 60.766 145.696 60.8529L145.427 60.2241Z" fill="#5124C5"/>
<path d="M155.296 123.522C154.246 124.279 152.724 125.053 153.754 125.156L154.792 125.076C154.76 124.514 154.94 123.96 155.296 123.522Z" fill="#5124C5"/>
<path d="M133.768 164.859L134.005 164.688L134.23 164.43C134.23 164.43 134.239 164.351 134.237 164.308L134.219 164.159C134.208 164.064 134.19 163.967 134.183 163.876C134.102 164.222 134.069 164.686 133.768 164.859Z" fill="#5124C5"/>
<path d="M133.546 165.673L132.501 166.426C132.74 166.268 133.079 166.024 133.546 165.673Z" fill="#5124C5"/>
<path d="M108.901 152.874L109.274 152.179C108.547 153.158 108.915 152.761 108.901 152.874Z" fill="#5124C5"/>
<path d="M159.571 84.1574C159.531 84.5294 159.516 84.9036 159.526 85.2775C159.533 85.4411 159.551 85.5976 159.569 85.7458L159.595 85.955L159.604 86.1102C159.704 85.8847 159.781 85.6496 159.833 85.4086C159.89 85.1993 159.936 84.9872 159.971 84.7731C159.994 84.4182 159.932 84.169 159.571 84.1574Z" fill="#5124C5"/>
<path d="M159.858 87.8383C159.925 87.7167 159.957 87.5981 160.015 87.4751C159.91 87.2529 159.824 87.0219 159.76 86.7846C159.671 86.57 159.618 86.3421 159.604 86.1103C159.472 86.3823 159.406 86.6818 159.411 86.9843C159.417 87.151 159.46 87.3143 159.538 87.4621C159.615 87.6099 159.724 87.7384 159.858 87.8383Z" fill="#5124C5"/>
<path d="M152.119 68.9368C151.741 68.4741 152 68.9047 152.119 68.9368V68.9368Z" fill="#5124C5"/>
<path d="M152.66 64.916C152.724 64.9493 152.795 64.9654 152.866 64.9628C152.938 64.9601 153.008 64.9389 153.068 64.9011C152.939 64.959 152.793 64.9644 152.66 64.916Z" fill="#5124C5"/>
<path d="M165.218 93.4182L165.213 93.4732C165.24 93.2845 165.234 93.3179 165.218 93.4182Z" fill="#5124C5"/>
<path d="M151.895 68.0548C151.957 68.307 152.043 68.5526 152.151 68.7883C152.089 68.5363 152.003 68.2907 151.895 68.0548Z" fill="#5124C5"/>
<path d="M151.679 68.3276C151.59 68.1422 151.519 68.0026 151.446 67.8712C151.312 67.8794 151.288 67.9779 151.679 68.3276Z" fill="#5124C5"/>
<path d="M152.566 69.6069C152.399 69.3384 152.254 69.0564 152.134 68.764C152.157 68.8872 152.156 68.9469 152.119 68.9366C152.212 69.0755 152.346 69.2724 152.566 69.6069Z" fill="#5124C5"/>
<path d="M126.155 114.478L126.16 114.343C126.109 113.711 126.124 113.986 126.155 114.478Z" fill="#5124C5"/>
<path d="M156.533 140.408L156.569 140.346L156.514 140.422L156.533 140.408Z" fill="#5124C5"/>
<path d="M155.396 142.359C155.715 141.678 156.098 141.028 156.539 140.418L155.877 140.896L155.396 142.359Z" fill="#5124C5"/>
<path d="M100.83 179.777C101.375 179.707 101.118 180.605 102.282 180.538L100.656 180.769C101.258 180.807 101.862 180.792 102.461 180.725C103.147 180.657 103.921 180.547 104.846 180.475C104.397 180.483 101.123 180.683 102.988 180.345C103.733 180.272 104.472 180.145 105.198 179.964C105.229 180.089 106.201 179.888 107.413 179.632L107.365 179.82C108.023 179.646 108.668 179.427 109.295 179.164C109.99 178.935 110.72 178.832 111.45 178.86C113.772 178.237 109.8 179.109 112.512 178.294C113.464 178.004 114.277 177.756 115.112 177.426C115.947 177.096 116.804 176.713 117.879 176.166C119.166 175.628 117.701 176.368 118.171 176.205L119.234 175.549C119.511 175.423 119.443 175.502 119.406 175.543C119.869 175.297 119.846 175.225 119.929 175.166C120.202 174.924 120.506 174.718 120.831 174.552C121.408 174.156 122.029 173.827 122.681 173.571C123.652 173.058 124.573 172.453 125.43 171.766C125.855 171.511 125.303 171.998 125.462 171.964C127.586 170.19 127.309 170.448 128.984 168.939C129.531 168.597 130.029 168.186 130.551 167.81C129.368 168.604 130.675 167.339 131.818 166.243L131.668 166.351C131.668 166.351 131.598 166.357 131.557 166.35L131.424 166.328L130.933 166.249C130.686 166.202 130.437 166.173 130.187 166.162L131.577 163.932C131.982 163.942 132.137 164.514 132.251 165.284C132.297 165.091 132.333 164.896 132.358 164.699C132.582 164.665 132.81 164.701 133.012 164.801C133.098 164.846 133.175 164.904 133.24 164.975C133.282 165.033 133.279 165.028 133.279 165.028C133.16 165.23 133.014 165.415 132.844 165.576L132.096 166.109C131.696 166.573 131.303 167.048 131.47 167.045C131.6 166.951 131.818 166.713 132.081 166.486C131.972 166.609 131.907 166.693 131.98 166.662C132.176 166.498 132.359 166.319 132.528 166.127L133.106 165.909L133.168 165.762C134.035 165.078 134.881 164.365 135.741 163.672C136.162 163.236 136.549 162.825 136.943 162.394L138.157 161.019C138.585 160.542 139.043 160.035 139.563 159.483L141.279 157.622C140.728 158.387 141.302 157.929 141.392 158.084C140.851 158.524 140.351 159.012 139.9 159.542C139.315 160.147 138.644 160.859 137.937 161.508C138.684 160.822 138.585 161.041 138.413 161.231C139.208 160.386 140.035 159.577 140.797 158.697C140.841 158.849 141.402 158.261 142.063 157.63C141.727 157.784 142.149 157.289 142.794 156.603C143.439 155.918 144.185 155.057 144.65 154.53C144.779 154.525 144.617 154.841 143.435 156.097C143.981 155.615 144.46 155.062 144.859 154.453C145.256 153.852 145.712 153.293 146.219 152.782C146.03 152.977 145.862 153.192 145.718 153.422C146.296 152.623 147.905 150.839 147.609 151.324L147.334 151.647C147.807 151.13 148.35 150.437 148.939 149.704L149.821 148.583L150.656 147.437C151.4 146.5 152.045 145.488 152.581 144.418C152.61 144.397 152.593 144.873 152.536 145.039C152.914 144.288 153.264 143.521 153.633 142.778L153.896 142.206L154.02 141.918C153.968 141.765 153.894 141.59 153.83 141.431C153.564 140.777 153.293 140.135 153.023 139.506C153.448 139.87 153.925 140.168 154.439 140.389C154.511 140.418 154.585 140.46 154.661 140.493L154.772 140.546C154.796 140.579 154.86 140.585 154.853 140.576L154.928 140.558C154.977 140.546 155.026 140.54 155.076 140.539C155.245 140.55 155.291 140.766 154.725 141.785C155.278 140.983 155.768 140.138 156.189 139.259C155.95 139.652 155.377 140.11 155.674 139.564C156.115 139.008 156.502 138.412 156.83 137.783C156.873 137.701 157.003 137.299 157.238 136.585C157.033 137.269 156.924 136.415 157.176 135.388C157.182 135.56 157.483 135.365 157.437 135.751L157.727 133.094C157.629 133.753 157.944 133.262 158.169 132.688C158.054 132.947 158.676 130.434 158.794 129.731L158.485 130.821C159.166 127.883 158.711 127.822 159.346 124.88C159.333 125.249 159.538 125.829 159.872 124.346C159.866 123.99 159.845 123.197 159.852 122.156L159.858 121.96C159.793 121.874 159.721 121.793 159.64 121.72C159.48 121.549 159.324 121.383 159.177 121.209C158.879 120.874 158.6 120.524 158.339 120.16C157.866 119.534 157.533 118.815 157.362 118.049L158.181 117.687L157.726 115.568C158.145 115.956 158.667 116.506 159.237 117.154C159.521 117.477 159.815 117.824 160.115 118.189C160.185 118.285 160.254 118.382 160.324 118.479L160.429 118.624C160.467 118.677 160.442 118.703 160.448 118.742L160.421 119.225C160.356 120.521 160.261 121.898 160.167 122.869C160.379 122.234 160.537 121.583 160.637 120.921C160.833 120.346 160.575 121.855 160.497 122.337L161.269 118.474C161.071 118.617 161.619 115.473 161.45 115.595C161.267 117.013 161.08 118.426 160.877 119.837C160.674 119.983 160.849 117.321 161.333 114.577C161.521 113.89 161.551 115.154 161.619 115.106C161.627 114.74 161.929 112.478 162.013 112.227L161.919 113.412C162.23 111.887 162.087 110.873 162.512 109.045C162.692 108.388 162.823 107.719 162.905 107.042C162.871 107.222 162.799 107.392 162.694 107.541C162.588 107.691 162.452 107.816 162.295 107.908L162.221 107.918L161.966 107.881C161.582 107.827 161.217 107.759 160.884 107.684C160.364 107.592 159.866 107.405 159.414 107.134C159.486 107.03 159.988 106.257 160.588 105.428C161.066 104.679 161.634 103.991 162.278 103.379C162.43 103.274 162.607 103.21 162.791 103.193C162.82 103.172 162.825 103.168 162.826 103.241C162.869 103.407 162.896 103.578 162.905 103.749C162.943 104.178 162.982 104.62 163.096 104.178C163.06 103.887 163.05 103.594 163.068 103.302C163.177 102.628 163.186 103.599 163.309 102.128C163.176 101.872 163.584 99.1448 163.246 101.439C163.309 99.997 163.42 99.9168 163.515 98.224C163.442 98.4898 163.372 98.1068 163.329 97.4764L163.292 96.9665L163.281 96.8279C163.256 96.7941 163.214 96.736 163.18 96.6877C163.145 96.6393 163.04 96.4942 162.97 96.3975C162.736 96.0422 162.557 95.6532 162.44 95.2438C162.634 95.2775 162.833 95.2451 163.006 95.152L163.264 95.0101C163.356 94.9439 163.326 94.9135 163.35 94.8746C163.359 94.133 163.387 93.4884 163.379 92.8765C163.372 92.2646 163.385 91.7115 163.359 91.1564C163.334 90.6014 163.309 90.0679 163.26 89.479C163.234 89.1888 163.21 88.8902 163.175 88.5771L163.021 87.6082C163.051 87.344 162.755 86.0362 162.963 86.5696L162.774 85.9709C162.683 85.7426 162.575 85.4603 162.439 85.0583C162.063 83.4555 163.035 86.8333 162.833 85.6048C162.705 85.5284 162.022 83.5514 161.59 82.4222C161.559 82.8271 162.45 85.0728 162.857 86.2194C162.819 86.2473 162.738 86.1146 162.624 85.8954C162.589 85.847 162.547 85.789 162.505 85.7309L162.436 85.6342C162.382 85.6047 162.326 85.5786 162.269 85.5559C162.022 85.4378 161.785 85.3022 161.558 85.1501C160.496 84.4181 159.599 83.4727 158.924 82.3742C157.774 80.4623 159.498 81.1305 159.173 80.8429C158.949 80.0635 158.559 79.3417 158.03 78.7272C157.648 78.3485 157.21 78.0324 156.73 77.7903C156.311 77.5843 155.938 77.2958 155.633 76.942C155.268 76.3999 155.04 75.7765 154.971 75.1263C155.138 73.4921 156.568 74.181 157.018 73.592C157.518 74.1819 157.827 74.9097 157.905 75.6791C157.946 76.2981 158.086 76.9065 158.322 77.4805L158.064 75.9099C158.594 76.2991 159.387 77.3075 159.393 78.0386C159.444 76.723 156.416 71.4317 154.585 68.6876C154.41 68.4458 154.177 68.1218 154.02 67.9042C153.981 67.851 153.947 67.8026 153.922 67.7688C153.898 67.7349 153.873 67.7011 153.815 67.7214C153.756 67.7418 153.679 67.819 153.674 67.9549L154.347 68.7559C154.269 69.9517 152.478 67.6926 152.911 68.9756C152.341 68.5415 151.632 68.1703 151.019 67.6567C150.706 67.4014 150.419 67.116 150.162 66.8045C149.86 66.4706 149.596 66.104 149.375 65.7116L149.879 64.8112C149.69 65.0282 150.245 66.1347 150.785 66.3631C150.384 66.1743 150.161 65.4164 149.852 64.6914C149.542 63.9665 149.133 63.3064 148.372 63.4137C148.523 63.878 148.644 64.3716 148.756 64.8639C148.165 64.4818 147.38 64.1879 146.663 63.7856C146.305 63.5915 145.968 63.3622 145.655 63.1011C145.334 62.8571 145.051 62.565 144.818 62.235C144.773 62.8257 144.851 62.8725 144.959 62.9711C145.067 63.0698 145.211 63.2084 145.206 64.0276C145.341 63.1954 146.017 63.9797 146.651 64.706C147.285 65.4324 147.825 66.1521 147.867 65.0272C147.775 65.6942 147.912 66.3727 148.255 66.9521C148.399 67.2205 148.525 67.4977 148.633 67.7821C148.745 68.1766 148.793 68.5867 148.773 68.9964C149.005 68.7563 148.937 68.1432 149.595 69.3816C149.732 69.386 149.868 69.4095 149.998 69.4512C150.022 69.4851 150.029 69.4948 150.05 69.5238C150.05 69.4961 150.047 69.4685 150.042 69.4413C150.116 69.4618 150.126 69.4548 150.042 69.4413C149.962 69.158 149.962 68.8578 150.042 68.5744C150.665 68.7636 151.218 69.131 151.634 69.6312C152.029 70.1262 152.481 70.5723 152.982 70.9601C153.289 71.753 152.474 70.8778 152.409 71.4609L153.513 72.084C152.963 72.5757 153.455 74.654 152.197 73.1944L152.956 74.7269C153 75.3059 153.132 75.8747 153.349 76.4134C153.496 76.9148 153.754 77.3768 154.103 77.7657C154.263 78.569 155.726 79.2418 154.887 78.8538C155.417 79.5889 155.851 80.3639 156.325 81.154L156.161 81.2725C156.376 81.9142 156.655 82.5331 156.993 83.12C157.303 83.7341 157.601 84.3718 157.888 85.0247C158.19 85.6861 158.414 86.3803 158.556 87.0933C158.59 87.2489 158.599 87.4089 158.582 87.5672C158.576 87.7179 158.561 87.8681 158.539 88.0172C158.511 88.1816 158.471 88.3435 158.417 88.5015C158.362 88.6765 158.297 88.8485 158.223 89.0165C158.668 89.9448 158.81 90.9899 158.627 92.0032L157.855 92.3094C158.13 93.4046 156.961 95.6364 157.702 96.1751C156.602 96.7482 156.355 98.109 156.286 99.6139C156.253 100.373 156.263 101.152 156.225 101.863C156.23 102.506 156.142 103.146 155.963 103.764L157.016 103.96C156.892 104.68 156.835 105.41 156.846 106.141C156.842 106.879 156.915 107.715 156.987 108.64L157.965 108.671C158.514 110.34 156.632 112.571 156.246 115.003C155.903 114.772 156.12 114.175 156.424 113.772C155.051 115.048 155.151 116.645 155.328 118.236C155.506 119.828 155.769 121.417 154.658 122.578C154.756 122.845 154.777 123.135 154.718 123.414C154.66 123.693 154.524 123.95 154.326 124.155C154.334 124.097 154.329 124.038 154.311 123.982C154.279 124.068 154.254 124.157 154.238 124.248C153.999 124.508 153.736 124.764 153.501 125.051C153.771 124.873 154.009 124.652 154.206 124.396C154.1 125.096 154.084 125.807 154.157 126.511L153.001 126.609C153.003 126.674 152.992 126.719 152.998 126.788C152.426 127.443 153.374 127.494 154.281 127.274C154.365 127.679 154.514 128.068 154.722 128.426C152.824 128.648 154.859 130.532 152.789 130.944C153.591 131.659 152.569 134.88 154.424 135.74C154.16 135.71 153.988 135.9 154.067 135.49C154.002 135.603 153.925 135.762 153.873 135.843L153.727 136.088C153.637 136.241 153.581 136.411 153.565 136.587C153.508 136.819 153.529 137.062 153.623 137.28C153.14 137.151 152.673 136.981 152.196 136.839C152.497 137.644 152.744 138.487 153.002 139.345C151.654 139.839 150.975 139.917 150.596 138.433C150.618 138.995 150.598 139.557 150.537 140.115C150.49 140.415 150.421 140.71 150.33 140.999C150.126 141.765 150.058 142.561 150.128 143.35L149.411 142.712C148.977 143.385 149.251 145.202 148.302 145.129C147.025 145.315 145.623 147.06 143.887 148.995C143.006 150.025 142.065 151 141.068 151.916C140.575 152.369 140.058 152.796 139.52 153.194C138.993 153.561 138.436 153.883 137.856 154.158C139.201 154.842 138.59 155.003 137.823 155.204C137.056 155.404 136.153 155.629 136.859 156.486C136.182 156.189 135.443 156.346 135.577 155.412C135.036 156.214 134.308 156.873 133.455 157.331C133.075 157.548 132.766 157.87 132.562 158.258C132.358 158.645 132.27 159.083 132.306 159.519C131.643 159.181 132.02 158.439 131.57 158.293C131.523 158.525 131.397 159.226 130.942 159.084C130.486 158.942 130.83 158.43 130.878 157.976C129.139 159.642 130.345 161.396 131.498 163.026C129.929 163.114 129.533 163.583 129.651 165.174C128.915 164.969 127.915 164.867 128.951 163.724C128.602 163.975 127.433 164.605 126.442 165.341C125.451 166.077 124.674 166.865 125.093 167.548C124.637 167.384 124.07 168.168 123.985 168.457C123.598 168.736 123.279 168.966 123.007 169.089L122.313 169.471C121.777 169.785 121.266 170.139 120.783 170.53C120.972 170.527 121.151 170.5 121.337 170.483C121.555 171.51 121.266 171.791 120.795 171.933C120.187 172.006 119.603 172.212 119.083 172.535L119.029 172.338C117.206 172.47 116.956 172.745 116.687 173.035C116.536 173.221 116.325 173.349 116.09 173.399C115.499 173.499 114.897 173.515 114.301 173.446L114.897 174.487C115.212 175.729 114.366 175.707 113.256 175.442C112.69 175.296 112.114 175.195 111.532 175.141C111.269 175.101 110.999 175.116 110.742 175.185C110.484 175.253 110.243 175.373 110.033 175.538L110.905 176.004C110.506 176.572 109.421 176.391 108.452 175.568C107.484 174.745 106.489 177.402 105.967 177.36C105.707 177.194 106.232 176.933 106.492 176.702C106.264 176.605 106.015 176.566 105.768 176.589C105.522 176.612 105.284 176.696 105.078 176.833C104.872 176.97 104.702 177.156 104.586 177.375C104.469 177.594 104.409 177.838 104.41 178.086C104.528 178.698 103.011 177.624 102.832 178.018C102.729 178.497 102.572 178.963 102.363 179.406C102.118 179.576 100.83 179.777 100.83 179.777ZM102.939 180.337C102.377 180.477 101.803 180.558 101.225 180.58C101.78 180.408 102.358 180.326 102.939 180.337ZM134.658 164.188C134.316 164.538 133.941 164.855 133.539 165.134C133.856 164.84 134.228 164.52 134.658 164.188ZM153.882 75.522L153.939 75.5397C153.982 75.7427 154.01 75.9484 154.023 76.1555C154.004 76.0883 153.97 75.848 153.882 75.522ZM153.268 73.5904C153.074 73.4734 152.982 73.5396 152.926 73.6757C153.166 73.6934 153.386 74.0791 153.564 74.5607C153.701 74.3224 153.706 74.0244 153.268 73.5904ZM127.905 109.086L127.692 109.505C127.379 108.591 127.639 108.83 127.905 109.086Z" fill="#5124C5"/>
<path d="M133.584 165.573C133.527 165.613 133.459 165.636 133.389 165.639C133.262 165.768 133.274 165.796 133.584 165.573Z" fill="#5124C5"/>
<path d="M108.833 153.004L108.891 152.962C108.92 152.941 108.913 152.902 108.911 152.888L108.833 153.004Z" fill="#5124C5"/>
<path d="M165.103 101.894C165.072 102.173 165.027 102.451 164.968 102.726C164.986 102.772 165.039 102.579 165.103 101.894Z" fill="#5124C5"/>
<path d="M148.335 64.3301L149.25 65.1917C148.985 64.8939 148.807 64.5279 148.738 64.135C148.626 64.2748 148.595 64.62 148.335 64.3301Z" fill="#5124C5"/>
<path d="M142.816 53.5441C142.646 53.4252 142.465 53.3243 142.275 53.2429L142.158 53.5186C142.416 53.6962 142.705 53.8242 143.011 53.896C143.099 53.906 143.133 53.8816 143.117 53.8193C143.098 53.7724 143.068 53.7309 143.03 53.6984C142.972 53.6592 142.899 53.6089 142.816 53.5441Z" fill="#5124C5"/>
<path d="M149.36 61.7973C149.736 61.2988 149.033 60.8132 148.301 60.246C148.344 60.2798 148.384 60.3177 148.419 60.3592C148.026 60.5688 148.059 60.7877 148.28 61.0327C148.607 61.3312 148.97 61.588 149.36 61.7973Z" fill="#5124C5"/>
<path d="M153.562 70.2557C153.486 69.8035 152.704 70.5138 152.809 70.1592C152.337 70.198 152.901 70.6439 153.411 70.8718C153.92 71.0997 154.353 71.1186 153.562 70.2557Z" fill="#5124C5"/>
<path d="M150.283 59.8245L149.974 60.5985L150.78 60.5541L150.283 59.8245Z" fill="#5124C5"/>
<path d="M154.665 65.9035L153.939 64.5601C153.833 64.6368 153.671 64.5551 153.482 64.4048C154.016 65.1662 154.496 66.0768 154.665 65.9035Z" fill="#5124C5"/>
<path d="M153.482 64.4044C153.269 64.0553 152.975 63.7628 152.625 63.5522C152.892 63.8541 153.178 64.1388 153.482 64.4044Z" fill="#5124C5"/>
<path d="M151.747 61.3044L152.023 61.6567L152.713 62.4819L151.747 61.3044Z" fill="#5124C5"/>
<path d="M162.073 80.2073C162.367 80.6863 162.589 81.1878 162.847 81.678C163.205 81.736 163.261 81.2326 162.938 80.6935C162.621 80.3858 162.265 79.871 162.073 80.2073Z" fill="#5124C5"/>
<path d="M161.119 75.1924C161.219 75.4189 161.299 75.6534 161.36 75.8934L161.516 75.8761L161.119 75.1924Z" fill="#5124C5"/>
<path d="M163.048 79.6519C163.185 79.7809 163.941 81.9108 163.263 79.9005C163.184 79.7594 162.502 78.2225 163.048 79.6519Z" fill="#5124C5"/>
<path d="M164.39 104.421L164.441 104.003L164.371 104.009L163.842 103.957L162.764 103.859L163.824 104.168L164.337 104.327L164.39 104.421Z" fill="#5124C5"/>
<path d="M161.273 126.298C161.734 124.379 161.207 125.809 161.641 124.078C161.674 123.613 161.288 125.494 161.342 125.028C161.153 126.194 160.987 126.799 161.273 126.298Z" fill="#5124C5"/>
<path d="M161.332 125.014L161.412 124.412C161.357 124.753 161.34 124.913 161.332 125.014Z" fill="#5124C5"/>
<path d="M108.439 178.709L108.526 178.646C108.157 178.658 107.79 178.706 107.431 178.789L108.439 178.709Z" fill="#5124C5"/>
<path d="M98.4613 60.9157C102.907 57.2945 101.329 57.001 103.371 62.673C103.834 63.9594 103.769 65.188 103.378 66.3189C102.389 69.1772 99.3143 71.4109 97.4008 72.3729C93.7191 70.6749 94.0158 64.5369 98.4613 60.9157Z" fill="#221F20"/>
<path d="M98.4613 60.9157C102.907 57.2945 101.329 57.001 103.371 62.673C103.834 63.9594 103.769 65.188 103.378 66.3189M98.4613 60.9157C94.0158 64.5369 93.7191 70.6749 97.4008 72.3729C99.3143 71.4109 102.389 69.1772 103.378 66.3189M98.4613 60.9157C97.5761 62.0039 95.9383 64.8834 96.4688 67.6955C96.9993 70.5076 101.296 67.9495 103.378 66.3189" stroke="#221F20" stroke-width="2"/>
<path d="M101.287 71.9901C103.413 70.3809 102.954 67.1391 102.459 65.7194L98.0768 69.6049L95.8083 69.0819L94.9923 65.4862L93.9342 67.3573C94.5619 68.5987 95.8453 71.4013 95.9576 72.6805C96.0981 74.2796 98.6297 74.0017 101.287 71.9901Z" fill="#221F20" stroke="#221F20"/>
<path d="M123.51 60.1541C121.064 57.005 100.436 72.7354 100.436 72.7354C100.436 72.7354 98.3515 71.1238 100.609 66.9688C102.462 63.5578 114.669 58.0483 120.913 58.5165C126.385 58.9269 125.531 57.4697 126.49 58.3233C128.542 60.151 146.172 66.0923 145.054 83.8476C143.859 102.83 142.013 117.717 134.319 130.541C128.709 139.894 128.527 142.362 121.24 151.17C117.225 156.025 107.531 166.632 103.401 170.589L102.929 173.502L106.066 177.854C106.379 178.119 106.237 178.907 103.165 179.946C99.3239 181.245 100.066 176.668 98.8068 173.901C97.5473 171.135 107.934 161.075 113.04 155.924C118.146 150.774 125.294 137.442 133.992 121.083C140.505 108.831 135.721 89.2316 135.811 78.1426C135.901 67.0537 125.955 63.3031 123.51 60.1541Z" fill="#221F20" stroke="#221F20" stroke-linecap="square"/>
<path d="M100.916 178.173C99.9247 177.734 100.13 175.132 100.356 173.887C101.651 172.954 102.608 176.232 103.094 177.685C103.58 179.139 102.156 178.723 100.916 178.173Z" fill="#FFD31A"/>
<path d="M128.374 54.3861C112.947 57.3583 112.616 58.2378 102.792 60.0733L102.863 57.0154C102.863 57.0154 112.641 56.1795 116.269 55.6074C121.58 54.77 128.087 51.3689 129.354 51.271C131.488 51.1063 129.115 53.8431 128.374 54.3861Z" fill="#221F20" stroke="#221F20"/>
<path d="M150.684 63.3784C148.786 60.3373 133.719 54.1729 128.373 52.0247L132.105 50.3543C133.841 51.0628 139.563 54.2718 145.146 56.7147C152.124 59.7683 149.937 58.7729 156.279 67.0617C162.622 75.3505 159.389 72.9043 158.528 74.2595C157.668 75.6147 153.057 67.1797 150.684 63.3784Z" fill="#221F20" stroke="#221F20"/>
<path d="M122.435 173.036C117.653 176.189 109.601 178.001 106.173 178.512L105.301 177.303C108.949 176.756 116.438 175.522 117.211 174.964C118.179 174.267 127.154 169.896 131.478 164.68C134.937 160.507 139.798 156.512 141.797 155.036C144.43 152.403 150.91 145.454 155.76 138.724C160.609 131.994 162.216 119.984 162.413 114.82C162.994 110.359 164.029 99.3236 163.521 90.8708C163.013 82.4179 159.426 76.1847 157.696 74.1247L160.114 72.3816C160.828 74.5615 162.634 79.7514 164.146 83.0714C166.035 87.2214 165.034 96.0273 165.382 96.5109C165.661 96.8978 164.295 111.993 163.576 119.493C162.875 122.938 161.153 131.015 159.87 135.761C158.267 141.693 150.153 148.278 144.535 155.267C138.917 162.257 128.413 169.094 122.435 173.036Z" fill="#221F20" stroke="#221F20"/>
<path d="M143.701 51.1424C141.478 50.0987 126.955 49.8036 124.53 49.8373L126.323 52.2016C125.41 52.566 133.05 50.9809 134.692 51.3895C138.196 51.5583 146.725 53.151 152.81 58.1717C158.895 63.1924 161.156 68.3238 161.526 70.2619C163.537 73.2216 166.691 77.1212 163.218 69.0417C158.877 58.9423 146.479 52.4471 143.701 51.1424Z" fill="#221F20" stroke="#221F20"/>
<path d="M129.509 174.183C117.732 181.498 107.039 181.073 103.164 179.946C106.873 179.993 117.089 178.567 128.289 172.491C142.289 164.895 158.426 142.004 161.732 137.415C165.039 132.827 167.119 121.349 168.21 117.255C169.301 113.162 169.228 104.395 169.279 92.2321C169.32 82.5017 163.966 73.6473 161.284 70.4363C161.722 70.3651 163.045 70.6366 164.826 72.2921C167.053 74.3615 171.754 87.5087 170.797 106.571C170.032 121.821 167.19 132.888 164.845 138.131C158.654 146.024 141.287 166.869 129.509 174.183Z" fill="#221F20" stroke="#221F20"/>
</svg>
